<svg width="32" height="32" viewBox="0 0 32 32" fill="none" xmlns="http://www.w3.org/2000/svg">
<path d="M0 5C0 2.23858 2.23858 0 5 0H27C29.7614 0 32 2.23858 32 5V27C32 29.7614 29.7614 32 27 32H5C2.23858 32 0 29.7614 0 27V5Z" fill="black"/>
<path d="M5 7H25.24V9H5V7Z" fill="white"/>
<path d="M6.76 23H27V25H6.76V23Z" fill="white"/>
<path d="M21.6318 7H27.0002L25.433 8.71429H20.0326L21.6318 7Z" fill="white"/>
<path d="M6.55138 23.2857H11.9448L10.4434 25H5L6.55138 23.2857Z" fill="white"/>
<path d="M9.65695 23.5288L24.9453 6.99998L25.8005 8.3132L10.5122 24.842L9.65695 23.5288Z" fill="white"/>
<path d="M6.33031 23.5288L21.6186 6.99998L22.4739 8.3132L7.18554 24.842L6.33031 23.5288Z" fill="white"/>
</svg>
